<svg width="131" height="96" viewBox="0 0 131 96" fill="none" xmlns="http://www.w3.org/2000/svg">
<g clip-path="url(#clip0_1_2001)">
<path fill-rule="evenodd" clip-rule="evenodd" d="M23.0806 81.3689C22.5927 79.0492 20.7011 78.4319 18.5805 78.2328C11.7208 77.5956 10.5062 82.7429 10.5062 84.9033C10.5062 88.6169 11.5814 91.6833 18.3216 91.6833C19.5562 91.6833 22.991 90.409 22.991 88.3282H32.6682C32.2799 94.5009 21.9157 95.9843 17.4057 95.9843C8.04706 95.9843 0.032488 94.2321 0.420771 85.0327C0.699539 78.4319 6.92203 73.8024 19.3371 74.0812C26.2366 74.2405 32.8574 76.4009 32.8872 81.3988L23.0806 81.3689Z" fill="#02033B"/>
<path fill-rule="evenodd" clip-rule="evenodd" d="M120.072 81.3689C119.594 79.0492 117.702 78.4319 115.581 78.2328C108.722 77.5956 107.507 82.7429 107.507 84.9033C107.507 88.6169 108.582 91.6833 115.323 91.6833C116.557 91.6833 119.982 90.409 119.982 88.3282H129.679C129.281 94.5009 118.927 95.9843 114.407 95.9843C105.048 95.9843 97.0335 94.2321 97.4217 85.0327C97.7005 78.4319 103.923 73.8024 116.338 74.0812C123.238 74.2405 129.858 76.4009 129.888 81.3988L120.072 81.3689Z" fill="#02033B"/>
<path fill-rule="evenodd" clip-rule="evenodd" d="M34.5596 74.4994H47.134L57.8665 89.5927H57.9462V74.4994H66.0105V95.407H53.9638L42.7135 80.3535H42.6239V95.4269H34.5596V74.4994Z" fill="#02033B"/>
<path fill-rule="evenodd" clip-rule="evenodd" d="M68.5 74.4994H83.7625C91.11 74.4994 95.421 76.5503 95.421 79.6566C95.421 81.4885 93.6189 83.7585 89.5868 84.4255V84.4852C94.4353 84.764 96.2274 87.8404 96.2274 89.6823C96.2274 93.3759 92.016 95.4269 83.8123 95.4269H68.5V74.4994ZM77.331 82.6235H79.8697C83.7725 82.6235 85.8433 82.3148 85.8433 80.692C85.8433 79.0692 84.1209 78.3723 80.6164 78.3723H77.3409V82.6235H77.331ZM77.331 91.0363H79.8697C84.569 91.0363 86.2913 90.5385 86.2913 88.9157C86.2913 87.2928 84.1209 86.6059 80.6065 86.6059H77.3409V91.0363H77.331Z" fill="#02033B"/>
<path fill-rule="evenodd" clip-rule="evenodd" d="M108.573 42.4113L72.582 66.4848L84.7084 37.6623L90.453 24.2515C92.7031 19.9506 97.1136 17.2027 101.962 17.0733C106.522 17.0434 110.773 19.3731 113.192 23.236C115.841 27.2184 115.99 33.6699 113.342 37.6722C112.097 39.5638 110.475 41.1767 108.583 42.4212" fill="#02033B"/>
<path fill-rule="evenodd" clip-rule="evenodd" d="M90.6516 19.6817L72.8503 61.7656L72.0937 57.1759L66.7075 22.6784C66.4486 20.6872 67.3546 18.7259 69.0372 17.6208L71.5859 16.0975C71.7352 15.5699 70.9885 15.3906 70.6401 15.2214L65.6621 15.1716C65.015 8.01327 70.2916 1.69122 77.45 1.03412C79.5507 0.844957 81.6713 1.16355 83.6127 1.97994C88.4414 4.11052 91.5974 8.83961 91.7169 14.1163C91.7169 16.0179 91.3585 17.9095 90.6516 19.6717" fill="#02033B"/>
<path fill-rule="evenodd" clip-rule="evenodd" d="M56.4631 61.9149L38.9406 19.7314C37.039 14.9924 37.8554 9.59624 41.0712 5.63376C44.3367 1.8007 49.5139 0.187832 54.3823 1.47215C58.9023 2.80626 62.4069 6.39041 63.6314 10.9403C64.0396 12.6925 64.1492 14.4946 63.95 16.2867L56.4631 61.9149Z" fill="#02033B"/>
<path fill-rule="evenodd" clip-rule="evenodd" d="M19.009 40.888C15.4845 37.9211 13.7223 33.3513 14.3496 28.7914C15.0365 23.7139 18.4912 19.4328 23.3099 17.6806C27.9693 16.1673 33.0867 17.4118 36.5315 20.8963C37.8556 22.2305 38.901 23.8234 39.6079 25.5657L56.5331 66.5545L19.009 40.888Z" fill="#02033B"/>
<path fill-rule="evenodd" clip-rule="evenodd" d="M15.1555 70.8355C10.6156 70.3975 6.63317 67.6098 4.66189 63.488C2.46161 58.8186 2.97933 53.3229 6.0159 49.1414C9.28146 45.2287 13.9807 43.2574 18.7695 44.2331C20.5915 44.5716 22.3338 45.2984 23.867 46.3438L60.3059 70.8355H15.1555Z" fill="#02033B"/>
<path fill-rule="evenodd" clip-rule="evenodd" d="M114.088 70.8355C118.638 70.4074 122.63 67.6098 124.581 63.478C126.782 58.8087 126.264 53.313 123.237 49.1414C119.972 45.2287 115.273 43.2574 110.474 44.2331C108.652 44.5816 106.91 45.2984 105.376 46.3438L68.9375 70.8355H114.088Z" fill="#02033B"/>
</g>
<defs>
<clipPath id="clip0_1_2001">
<rect width="129.428" height="95" fill="white" transform="translate(0.411133 0.984375)"/>
</clipPath>
</defs>
</svg>
