<svg width="131" height="96" viewBox="0 0 131 96" fill="none" xmlns="http://www.w3.org/2000/svg">
<g clip-path="url(#clip0_1_2026)">
<path d="M0.125 69.7444H42.645V27.2244H0.125V69.7444ZM20.145 37.4644C19.475 35.3244 18.745 34.6344 14.975 34.6344H12.065C11.185 34.6344 10.995 34.8244 10.995 35.6144V41.6844H12.415C15.415 41.6844 16.055 41.1344 16.415 39.1244H17.145V45.9044H16.415C16.015 43.6444 14.885 43.0744 12.415 43.0744H10.985V49.4044C10.985 51.4144 11.525 51.6444 13.815 51.7344V52.4644H4.735V51.7144C6.625 51.6344 7.165 51.4044 7.165 49.3844V36.2944C7.165 34.2844 6.625 34.0544 4.795 33.9744V33.2444H20.845L20.945 37.4744H20.145V37.4644ZM38.385 37.4644C37.775 35.3944 36.875 34.6344 34.845 34.6344H32.475V49.3844C32.475 51.3944 32.995 51.6244 35.175 51.7144V52.4644H25.915V51.7344C28.075 51.6544 28.615 51.4244 28.615 49.4044V34.6544H26.255C24.245 34.6544 23.325 35.4044 22.715 37.4844H21.755L22.155 33.2544H38.995L39.355 37.4844H38.385V37.4644Z" fill="#02033B"/>
<path d="M52.005 44.9144C52.005 45.9144 52.285 45.9944 53.395 46.0344V46.3944H48.975V46.0344C49.895 45.9944 50.175 45.8744 50.175 44.9144V38.5444C50.175 37.5444 49.895 37.4644 49.025 37.4244V37.0644H56.835L56.875 39.1344H56.475C56.155 38.0944 55.795 37.7844 53.965 37.7844H52.535C52.095 37.7844 52.015 37.8644 52.015 38.2644V41.2144H53.615C55.085 41.2144 55.405 40.9344 55.565 39.9744H55.925V43.2844H55.565C55.365 42.1644 54.805 41.8944 53.615 41.8944H52.015V44.9244L52.005 44.9144ZM61.205 44.9144C61.205 45.9144 61.485 45.9944 62.595 46.0344V46.3944H57.985V46.0344C59.105 45.9944 59.375 45.8744 59.375 44.9144V38.5444C59.375 37.5444 59.135 37.4644 57.985 37.4244V37.0644H62.605V37.4244C61.485 37.4644 61.215 37.5844 61.215 38.5444V44.9144H61.205ZM72.235 38.7844C72.235 37.8644 71.995 37.5044 70.965 37.3944V37.0344H74.275V37.3944C73.235 37.5144 73.005 37.8744 73.005 38.7844V46.5944H72.525L66.155 39.2244V44.6444C66.155 45.5644 66.395 45.9244 67.425 46.0344V46.3944H64.115V46.0344C65.155 45.9144 65.385 45.5544 65.385 44.6444V38.3544C65.145 37.8444 64.665 37.4944 64.115 37.3944V37.0344H66.665L72.245 43.4844V38.7844H72.235ZM77.215 43.0444L78.605 39.3444L79.995 43.0444H77.215ZM83.905 46.3944V46.0344C83.185 46.0344 83.025 45.7544 82.665 44.8844L79.355 36.8344H78.915L75.495 45.1644C75.325 45.6644 74.865 46.0144 74.345 46.0444V46.4044H77.335V46.0444C76.695 46.0444 76.375 45.8844 76.375 45.4444C76.495 44.8544 76.665 44.2844 76.895 43.7344H80.285C80.535 44.2844 80.715 44.8544 80.845 45.4444C80.845 45.8844 80.485 46.0444 79.845 46.0444V46.4044H83.905V46.3944ZM92.985 38.7644C92.985 37.8444 92.745 37.4844 91.715 37.3744V37.0144H95.025V37.3744C93.985 37.4944 93.755 37.8544 93.755 38.7644V46.5744H93.275L86.915 39.2044V44.6244C86.915 45.5444 87.155 45.9044 88.185 46.0144V46.3744H84.875V46.0144C85.915 45.8944 86.145 45.5344 86.145 44.6244V38.3344C85.905 37.8244 85.425 37.4744 84.875 37.3744V37.0144H87.425L93.005 43.4644V38.7644H92.985ZM104.805 44.1844C104.015 45.7444 102.375 46.7044 100.625 46.6144C97.595 46.6144 95.765 44.6244 95.765 41.6344C95.795 38.9444 97.995 36.7844 100.685 36.8144H100.705C101.585 36.9144 102.455 37.1044 103.295 37.3744C103.575 37.3744 103.655 37.2144 103.895 36.8144H104.375L104.575 39.9244H104.175C103.805 38.4844 102.515 37.4544 101.025 37.4144C98.835 37.4144 97.875 39.8044 97.875 41.5944C97.875 44.1044 98.945 45.8144 101.305 45.8144C102.645 45.7644 103.865 45.0244 104.535 43.8644L104.815 44.1844H104.805ZM109.305 44.9044C109.305 45.9044 109.585 45.9844 110.695 46.0244V46.3844H106.085V46.0244C107.205 45.9844 107.475 45.8644 107.475 44.9044V38.5344C107.475 37.5344 107.195 37.4544 106.085 37.4144V37.0544H110.705V37.4144C109.585 37.4544 109.315 37.5744 109.315 38.5344V44.9044H109.305ZM114.515 43.0344L115.905 39.3344L117.295 43.0344H114.515ZM121.205 46.3844V46.0244C120.485 46.0244 120.325 45.7444 119.965 44.8744L116.655 36.8244H116.215L112.795 45.1544C112.625 45.6544 112.165 46.0044 111.645 46.0344V46.3944H114.635V46.0344C113.995 46.0344 113.675 45.8744 113.675 45.4344C113.795 44.8444 113.965 44.2744 114.195 43.7244H117.585C117.825 44.2744 118.015 44.8444 118.145 45.4344C118.145 45.8744 117.785 46.0344 117.145 46.0344V46.3944H121.205V46.3844ZM122.045 46.3844V46.0244C122.925 45.9844 123.195 45.8644 123.195 44.9044V38.5344C123.195 37.5344 122.915 37.4544 122.045 37.4144V37.0544H126.345V37.4144C125.305 37.4544 125.075 37.5744 125.075 38.5344V45.1044C125.075 45.6644 125.235 45.8644 126.275 45.8644C127.945 45.8644 128.945 45.5444 129.735 43.9144H130.095L129.455 46.4244H122.045V46.3844ZM50.985 61.1244C52.055 61.0844 52.295 60.9644 52.295 60.0044V52.8344H51.145C50.075 52.8344 49.635 53.2744 49.315 54.5444H48.915L49.155 52.1544H57.365L57.605 54.5444H57.205C56.885 53.2644 56.485 52.8344 55.375 52.8344H54.225V60.0044C54.225 61.0044 54.505 61.0844 55.545 61.1244V61.4844H51.045V61.1244H50.985ZM61.785 60.0044C61.785 61.0044 62.065 61.0844 63.175 61.1244V61.4844H58.555V61.1244C59.675 61.0844 59.945 60.9644 59.945 60.0044V53.6344C59.945 52.6344 59.665 52.5544 58.555 52.5144V52.1544H63.185V52.5144C62.065 52.5544 61.795 52.6744 61.795 53.6344V60.0044H61.785ZM72.975 52.1144H76.205V52.4744C75.325 52.5144 75.055 52.6344 75.055 53.5944V59.9644C75.055 60.9644 75.335 61.0444 76.205 61.0844V61.4444H71.975V61.0844C72.895 61.0444 73.175 60.9244 73.175 59.9644V53.3944H73.135L70.025 61.5644H69.585L66.515 53.3944H66.475V59.6844C66.475 60.6044 66.715 60.9644 67.745 61.0744V61.4344H64.435V61.0744C65.475 60.9544 65.705 60.5944 65.705 59.6844V53.3144C65.705 52.6744 65.425 52.4344 64.435 52.4344V52.0744H67.825L70.295 58.5644L72.965 52.1144H72.975ZM77.515 61.4744V61.1144C78.395 61.0744 78.665 60.9544 78.665 59.9944V53.6244C78.665 52.6244 78.385 52.5444 77.515 52.5044V52.1444H85.325L85.365 54.2144H84.965C84.645 53.1744 84.285 52.8644 82.455 52.8644H81.025C80.585 52.8644 80.505 52.9444 80.505 53.3444V56.2944H82.095C83.565 56.2944 83.885 56.0144 84.045 55.0544H84.405V58.3644H84.045C83.845 57.2444 83.285 57.0144 82.095 57.0144H80.505V60.2444C80.505 60.8044 80.665 61.0044 82.335 61.0044C84.005 61.0044 85.005 60.6844 85.795 59.0544H86.155L85.515 61.5644H77.505V61.4844H77.515V61.4744ZM87.395 58.5044H87.755C88.135 59.8644 89.295 60.8744 90.705 61.0544C91.515 61.1244 92.225 60.5344 92.295 59.7244V59.5044C92.295 57.3544 87.435 56.9544 87.435 54.2844C87.545 52.9044 88.715 51.8544 90.105 51.8944C90.955 51.9744 91.795 52.1344 92.615 52.3744C92.875 52.3744 93.085 52.1544 93.095 51.8944H93.455V54.8844H93.095C92.855 53.5944 91.775 52.6344 90.465 52.5344C89.755 52.4544 89.125 52.9544 89.035 53.6644V53.8544C89.035 55.7644 93.895 55.8044 93.895 59.1144C93.855 60.5844 92.625 61.7544 91.155 61.7144H90.985C89.355 61.7144 88.915 61.1544 88.275 61.1544C88.035 61.1544 87.875 61.3144 87.795 61.6344H87.315L87.395 58.5244V58.5044Z" fill="#02033B"/>
</g>
<defs>
<clipPath id="clip0_1_2026">
<rect width="130" height="42.52" fill="white" transform="translate(0.125 27.2244)"/>
</clipPath>
</defs>
</svg>
