<svg width="131" height="96" viewBox="0 0 131 96" fill="none" xmlns="http://www.w3.org/2000/svg">
<g clip-path="url(#clip0_1_2015)">
<path fill-rule="evenodd" clip-rule="evenodd" d="M119.895 39.6743C120.215 39.5143 120.515 39.3243 120.795 39.1143H130.125C129.905 40.2243 129.625 41.3343 129.295 42.4243C128.295 43.4243 127.165 44.3543 126.065 45.2843C125.215 48.5343 124.285 51.7143 123.465 54.9943C122.085 55.9943 120.805 56.9943 119.465 57.9943C118.065 57.9143 116.745 57.9943 115.245 57.9943C115.325 57.2543 115.645 56.4443 115.735 55.5843C115.305 55.7843 114.885 56.0243 114.495 56.3043C114.105 56.5543 113.715 56.7843 113.295 57.0143C111.695 57.9543 109.835 58.3343 107.995 58.0743C106.715 57.8843 105.565 57.1943 104.795 56.1543C103.025 57.5243 99.5445 58.7843 96.6645 57.8843C94.8245 57.3043 93.8345 55.6043 94.2545 53.1843C93.5645 53.2943 92.8745 53.3543 92.1845 53.3743C91.9545 53.9243 91.7545 54.4943 91.5845 55.0643C90.5845 55.7743 89.5845 56.6043 88.5845 57.4043C88.2845 57.6943 87.9445 57.9443 87.5845 58.1543C86.8445 58.2243 86.1045 58.2243 85.3645 58.1543C84.6245 58.2143 83.8845 58.2143 83.1445 58.1543C84.3445 53.6743 85.5645 48.6743 86.8945 44.0143C87.0045 43.3543 87.1845 42.7143 87.4245 42.0943C87.6745 41.7943 87.9645 41.5243 88.2845 41.3043C89.2045 40.5443 90.1745 39.9043 91.0345 39.1143H95.0345C96.3745 39.1143 97.7745 38.9843 98.9445 39.1143C99.3745 39.2043 99.7745 39.3643 100.145 39.6043C100.395 39.9643 100.655 40.3343 100.895 40.6943C101.785 40.1243 102.715 39.6243 103.685 39.1943C104.855 38.8443 106.065 38.6943 107.285 38.7743C108.845 38.8343 110.285 39.4443 110.825 40.6943C112.065 39.5843 113.615 38.8843 115.265 38.6943C116.865 38.4943 118.495 38.8243 119.895 39.6343M119.365 40.0543C118.395 39.4643 117.265 39.1843 116.125 39.2343C115.475 39.2743 114.825 39.4043 114.205 39.6143C113.005 39.8543 111.945 40.5243 111.205 41.4943C110.615 42.4743 110.405 43.6343 110.605 44.7643C110.975 45.6043 111.485 46.3643 112.125 47.0243C112.695 47.7843 113.385 48.4443 113.855 49.0943C114.045 49.3343 114.195 49.5943 114.305 49.8843C114.615 50.6143 114.275 51.4543 113.555 51.7643C113.365 51.8443 113.165 51.8843 112.965 51.8743C112.855 51.8743 112.825 51.7743 112.775 51.7643C112.725 51.7543 112.635 51.7643 112.545 51.7643C111.645 51.3443 112.015 50.4543 112.175 49.5043H108.785C108.455 50.3543 108.265 51.2643 108.225 52.1743C108.325 54.0143 110.095 54.8043 111.945 54.8143C113.285 54.8743 114.605 54.5243 115.745 53.8143C116.305 53.5143 116.815 53.1143 117.245 52.6443C118.025 51.6143 118.405 50.3243 118.305 49.0343C118.065 47.8443 117.415 46.7843 116.465 46.0343C115.775 45.4543 115.145 44.7943 114.585 44.0843C114.305 43.6143 114.225 43.0643 114.365 42.5343C114.645 42.1143 115.145 41.8943 115.645 41.9743C116.805 42.1643 116.435 43.7343 116.245 44.5343C117.245 44.6143 118.475 44.5343 119.405 44.5343C119.895 43.2343 120.515 41.0243 119.405 40.0143M102.545 40.3143C102.195 40.5343 101.885 40.7943 101.615 41.1043C101.385 41.3043 101.185 41.5343 101.015 41.7843C100.865 42.1843 100.755 42.6043 100.675 43.0243C99.9545 45.5243 99.2545 48.0243 98.6045 50.4343C98.4645 50.8543 98.3545 51.2843 98.2645 51.7143C98.0445 53.0743 98.9245 54.3643 100.265 54.6543C102.655 55.2343 105.425 54.6043 106.705 53.2143C107.085 52.8043 107.405 52.3343 107.635 51.8243C107.905 51.1743 108.065 50.2943 108.315 49.4543C108.795 47.8843 109.315 46.2443 109.675 44.6743C109.925 43.8643 110.125 43.0343 110.275 42.1943C110.385 41.5643 110.275 40.9143 109.975 40.3543C109.475 39.8843 108.865 39.5643 108.205 39.4143C107.345 39.2443 106.475 39.2043 105.605 39.2943C104.515 39.4143 103.465 39.7543 102.515 40.2943M121.255 39.6943C121.005 40.4643 120.815 41.2643 120.685 42.0643H122.835C121.835 46.1343 120.665 50.0043 119.675 54.0643C120.745 54.1243 121.805 54.1243 122.875 54.0643C124.025 50.0643 125.025 46.1543 126.145 42.1343C126.945 42.1943 127.755 42.1943 128.555 42.1343C128.755 41.3243 129.055 40.4043 129.195 39.6543C126.195 39.6543 123.785 39.6043 121.255 39.6543M97.9845 48.6543C98.4545 48.0943 98.7945 47.4443 98.9845 46.7343C99.4245 45.6343 99.7545 44.5043 99.9845 43.3443C100.145 42.8043 100.255 42.2443 100.295 41.6743C100.385 40.8143 99.8445 40.0143 99.0145 39.7643C98.4045 39.7243 97.7845 39.7243 97.1745 39.7643H91.6045C90.3045 44.5843 88.9645 49.3543 87.7645 54.1743C88.8545 54.2343 89.9445 54.2343 91.0345 54.1743C91.4645 52.7043 91.8545 51.1743 92.3145 49.7743C94.6645 49.9243 96.6645 49.9443 97.9945 48.7243" fill="#02033B"/>
<path fill-rule="evenodd" clip-rule="evenodd" d="M53.5551 39.2342H53.7051V39.4542H53.5551C53.5051 39.3742 53.5051 39.2742 53.5551 39.1942" fill="#02033B"/>
<path fill-rule="evenodd" clip-rule="evenodd" d="M102.015 51.7643C102.015 51.6343 101.955 51.5143 101.865 51.4243C101.955 50.4843 102.155 49.5643 102.465 48.6743C102.865 47.2443 103.245 45.8743 103.665 44.3143C103.775 43.5943 104.065 42.9043 104.495 42.3143C105.085 41.8643 106.495 41.8143 106.605 42.7343C106.575 43.0943 106.505 43.4443 106.375 43.7843C105.975 45.4943 105.535 47.1743 105.065 48.8643C104.875 49.5443 104.765 50.2443 104.535 50.8643C104.445 51.1043 104.335 51.3343 104.195 51.5443C103.585 52.0843 102.705 52.1543 102.015 51.7343" fill="#02033B"/>
<path fill-rule="evenodd" clip-rule="evenodd" d="M57.6951 51.5343C57.1451 51.9643 56.4051 52.0543 55.7751 51.7543C55.2951 51.1643 55.8951 49.8443 56.1151 49.0843C56.6551 47.2143 57.1151 45.5043 57.5851 43.6643C57.6551 43.3043 57.7551 42.9543 57.8851 42.6143C58.2051 42.0343 59.9551 41.7043 60.1051 42.6143C60.0851 43.0243 60.0151 43.4243 59.8851 43.8143C59.6551 44.9043 59.2351 46.1243 58.9751 47.1643C58.6551 48.6443 58.2351 50.1143 57.7051 51.5343" fill="#02033B"/>
<path fill-rule="evenodd" clip-rule="evenodd" d="M93.0654 47.0943C93.4854 45.4943 93.9254 43.9043 94.3754 42.3143C95.1254 42.1243 96.4354 42.0643 96.5654 42.8043C96.5754 43.0743 96.5554 43.3343 96.4854 43.5943C96.2654 44.7143 95.9054 45.8043 95.3954 46.8343C94.7154 47.3043 93.8354 47.4043 93.0654 47.0943Z" fill="#02033B"/>
<path fill-rule="evenodd" clip-rule="evenodd" d="M67.625 45.7743C67.925 44.5843 68.285 43.4243 68.715 42.2743C69.635 42.4143 71.005 41.8443 70.785 43.3343C70.685 44.0043 70.255 44.8443 70.105 45.4343C69.705 45.9543 68.345 45.8243 67.625 45.7743Z" fill="#02033B"/>
<path fill-rule="evenodd" clip-rule="evenodd" d="M87.385 39.1143H82.385C82.085 39.3843 81.745 39.6543 81.385 39.9043C81.095 40.1843 80.755 40.4143 80.385 40.5843C80.495 40.0943 80.585 39.6043 80.645 39.1143H75.715C75.445 39.3943 75.145 39.6343 74.815 39.8343C74.485 39.5643 74.115 39.3543 73.725 39.1943C73.065 39.1143 72.385 39.1143 71.725 39.1943H65.105C64.765 39.4943 64.415 39.7643 64.045 40.0243C62.515 38.4643 58.775 38.4243 56.565 39.2743C56.395 39.2743 56.565 39.0443 56.305 39.1243H51.445C50.685 39.6743 50.125 40.3043 49.265 40.7743C49.195 40.3743 49.265 39.5843 49.155 39.1143H44.155C43.855 39.3943 43.525 39.6243 43.155 39.7943C43.155 39.5043 43.305 39.3743 43.335 39.1143H38.915C38.365 39.5743 37.765 39.9743 37.125 40.3143C37.105 39.9143 37.075 39.5143 37.015 39.1143H34.815C34.095 39.0343 33.355 39.0343 32.635 39.1143C32.125 39.2643 31.795 39.9943 31.245 40.0543C31.185 39.7343 31.145 39.4043 31.125 39.0743C26.785 39.0943 20.575 38.9043 15.925 39.1143C15.475 39.0643 15.025 39.0343 14.575 39.0443C14.095 39.1443 13.515 40.0443 13.025 40.0443C12.945 39.7143 12.905 39.3443 12.805 39.0443H8.125C7.065 39.7843 6.125 40.6743 5.125 41.4443C4.745 41.7643 4.325 41.9243 4.125 42.2743C3.995 42.7343 3.905 43.2043 3.845 43.6743C3.545 44.7543 3.315 45.6743 3.055 46.6743C2.125 50.4743 0.925 54.4743 0.125 58.1243H4.305C4.995 57.5443 5.715 57.0143 6.485 56.5343C6.625 57.0243 6.605 57.5343 6.745 58.1243H9.745C10.075 58.1543 10.415 58.1543 10.745 58.1243C11.075 58.0443 11.205 57.6243 11.495 57.5543C11.705 57.6743 11.775 57.9343 11.915 58.1243C14.105 57.9743 16.655 58.1743 18.345 58.1243C18.915 58.1743 19.475 58.1743 20.045 58.1243C20.355 57.9643 20.645 57.7543 20.905 57.5243C21.165 57.2743 21.465 57.0843 21.805 56.9543C21.805 57.4043 21.665 57.8043 21.695 58.1243H25.045C25.235 58.1243 25.415 58.1243 25.605 58.1243C26.085 58.0643 26.605 57.5143 26.995 57.2543C27.345 56.9143 27.775 56.6543 28.245 56.5043C28.155 57.0543 27.985 57.5043 27.905 58.0843H29.855C30.565 58.1643 31.295 58.1643 32.005 58.0843C32.325 58.0143 32.735 57.5543 33.055 57.2843C34.125 56.4743 35.325 55.6743 36.235 54.9143C37.605 51.9143 39.095 48.8343 40.495 45.9143C40.695 45.4943 40.775 44.9743 41.165 44.6743C41.415 46.3843 41.635 48.0943 41.805 49.6743C41.925 50.2243 41.985 50.7743 41.995 51.3343C41.885 51.8943 41.735 52.4443 41.545 52.9843L40.185 58.0343H44.775C45.825 57.3143 46.715 56.4543 47.775 55.7743C48.455 57.2043 49.875 58.1343 51.465 58.1843C53.005 58.2943 54.545 57.9643 55.905 57.2443C56.465 56.8943 57.065 56.5943 57.675 56.3443C57.625 56.9443 57.475 57.4443 57.415 58.0343H61.705C62.215 57.6443 62.755 57.2943 63.315 56.9843C63.315 57.4243 63.145 57.6043 63.135 57.9843C65.215 58.0443 67.625 57.9843 69.905 57.9843C70.695 58.0643 71.485 58.0643 72.275 57.9843C72.645 57.8143 72.975 57.5843 73.275 57.3043C73.635 57.0543 73.885 56.7043 74.275 56.6343C74.485 57.0643 74.655 57.5143 74.765 57.9843H79.765C81.105 56.9343 82.375 55.8043 83.765 54.7843C83.095 51.9343 82.455 49.0643 81.845 46.1643C83.645 44.0943 85.425 41.7243 87.125 39.5643C87.205 39.4643 87.435 39.2843 87.345 39.1143M10.955 54.2043C10.555 51.4743 10.375 48.7543 9.955 46.0743C9.125 48.6743 8.465 51.5943 7.575 54.2043C6.675 54.2043 5.665 54.2543 4.825 54.2043C5.975 49.3043 7.285 44.6143 8.475 39.7943C8.495 39.7343 8.535 39.6943 8.595 39.6743H12.315C12.615 41.9843 12.835 44.3743 13.185 46.6743C13.955 44.4043 14.515 41.9343 15.295 39.6743C16.235 39.6343 17.185 39.6643 18.125 39.7543C16.805 44.6743 15.545 49.3843 14.125 54.2043H10.955ZM35.645 54.2043C34.605 54.2643 33.565 54.2643 32.525 54.2043C32.705 51.4343 33.015 48.8443 33.235 46.0443C32.835 46.6743 32.495 47.3443 32.235 48.0443C31.235 50.0443 30.365 52.1943 29.415 54.2543H26.215C26.295 50.2543 26.685 46.1543 26.855 42.2543H22.565C22.115 43.2543 21.865 44.4943 21.475 45.5643C22.595 45.6243 24.095 45.5643 25.385 45.5643C25.275 46.3343 24.925 47.1743 24.745 48.0143H20.875C20.455 49.1743 20.185 50.4943 19.825 51.7043C21.225 51.7043 22.735 51.6543 24.075 51.7043C23.815 52.5343 23.525 53.3343 23.245 54.1443H15.795C16.985 49.2443 18.285 44.4543 19.565 39.6543C23.065 39.5943 26.865 39.6043 30.565 39.6543C30.405 42.0143 30.195 44.4343 29.965 46.7243C30.245 46.5443 30.325 46.1843 30.455 45.9043C31.455 43.9043 32.385 41.7143 33.355 39.6543H36.555C36.435 42.1043 36.105 44.4643 35.985 46.8443C37.255 44.6743 38.325 42.1143 39.525 39.7243C40.385 39.7243 41.415 39.6743 42.455 39.7243C40.195 44.5543 37.925 49.3843 35.645 54.2043ZM50.395 47.4343C50.125 47.7743 49.885 48.1443 49.675 48.5243C49.515 49.0243 49.395 49.5243 49.295 50.0343C48.945 51.3643 48.495 52.8043 48.055 54.2843H44.855C45.155 52.3743 45.855 50.4543 46.285 48.5643C46.305 48.0943 46.255 47.6243 46.125 47.1743C45.805 44.6743 45.445 42.2643 45.125 39.7543C46.345 39.6943 47.125 39.7543 48.505 39.7543C48.645 41.4643 48.795 43.2543 48.885 44.9543C50.015 43.4143 51.035 41.4443 52.155 39.7543C53.105 39.7543 54.375 39.7043 55.435 39.7543C53.865 42.3043 52.045 44.7543 50.385 47.3943M61.185 51.7943C60.765 52.6543 60.115 53.3843 59.315 53.9043C57.535 54.9043 55.435 55.1443 53.475 54.5843C53.015 54.4143 52.015 53.8943 51.865 53.2643C51.545 51.9843 52.185 50.5743 52.455 49.3943C52.895 47.4943 53.455 45.3943 54.005 43.4543C54.155 42.7143 54.445 42.0043 54.875 41.3743C55.815 40.0643 57.315 39.2543 58.935 39.1943C61.205 38.9843 63.425 39.1943 63.785 41.0343C63.835 41.3643 63.835 41.7043 63.785 42.0343C63.645 42.8843 63.445 43.7343 63.185 44.5543C62.765 46.1243 62.325 47.8243 61.875 49.4443C61.625 50.3343 61.445 51.2343 61.195 51.8543M71.315 54.2643C70.125 54.2643 69.195 54.3243 67.855 54.2643C68.005 53.0943 68.475 51.5343 68.795 50.1543C68.895 49.7043 69.165 49.1543 69.055 48.8043C68.835 48.1643 67.645 48.4643 66.915 48.3943C66.235 50.2643 65.775 52.3943 65.175 54.3043C64.055 54.2543 62.885 54.3043 61.865 54.3043C62.385 51.8343 63.125 49.4443 63.745 47.0343C64.365 44.6243 64.935 42.1943 65.665 39.8443H71.015C72.015 39.8443 73.535 39.7543 74.135 40.1843C75.245 40.9943 74.545 42.5743 74.205 43.8743C74.065 44.4943 73.885 45.1143 73.675 45.7143C73.345 46.5343 72.445 46.8043 71.675 47.2143C72.245 47.5143 72.895 47.6143 72.835 48.5343C72.755 49.0443 72.625 49.5543 72.465 50.0443C72.105 51.3543 71.545 53.1643 71.255 54.3643M83.655 43.0343C82.835 44.0343 82.025 45.1343 81.215 46.1943C81.775 48.9343 82.375 51.4743 82.905 54.1943C81.385 54.2743 80.285 54.2643 79.105 54.1943C78.685 52.0643 78.285 49.9243 77.865 47.7943C77.115 49.7943 76.575 52.0543 75.945 54.1943H72.365C72.615 53.0043 72.925 51.8343 73.305 50.6743C73.675 49.4943 73.935 48.2843 74.305 47.0943C74.675 45.9043 75.045 44.6943 75.305 43.4843C75.565 42.2743 76.005 40.9743 76.365 39.8343C77.505 39.7443 78.645 39.7443 79.785 39.8343C79.385 41.4743 78.965 42.9743 78.585 44.5343C79.015 44.2043 79.385 43.8143 79.705 43.3743C80.765 42.2243 81.825 40.9443 82.905 39.7943C83.955 39.7343 85.015 39.7343 86.065 39.7943C85.345 40.9443 84.475 41.9743 83.655 43.0343Z" fill="#02033B"/>
</g>
<defs>
<clipPath id="clip0_1_2015">
<rect width="130" height="19.62" fill="white" transform="translate(0.125 38.6743)"/>
</clipPath>
</defs>
</svg>
