<svg width="131" height="96" viewBox="0 0 131 96" fill="none" xmlns="http://www.w3.org/2000/svg">
<g clip-path="url(#clip0_1_2032)">
<path fill-rule="evenodd" clip-rule="evenodd" d="M128.515 38.3544C128.595 35.8544 126.625 33.7544 124.125 33.6744H123.915C122.115 33.6744 120.225 34.6744 120.515 37.1744C120.695 38.7644 123.175 39.3344 124.515 39.7644C128.515 41.0144 130.095 42.5344 130.095 45.4944C130.095 48.4544 127.635 50.4944 123.245 50.4944C121.095 50.4944 118.705 50.0644 117.245 48.7444L116.735 44.4544H117.145C117.785 48.2744 119.435 49.7744 123.395 49.8744C125.925 49.9344 126.675 48.4944 126.665 46.7144C126.655 44.9344 124.735 44.1644 122.465 43.4144C119.215 42.4144 117.215 41.1344 117.215 38.0244C117.215 34.9144 119.965 32.9044 124.035 32.9044C125.715 32.9544 127.365 33.4144 128.835 34.2444V38.3144L128.515 38.3544Z" fill="#02033B"/>
<path fill-rule="evenodd" clip-rule="evenodd" d="M114.305 34.5644C115.015 34.0844 115.685 33.5544 116.305 32.9544C116.995 32.3744 117.435 31.5544 117.525 30.6544C117.525 30.4844 117.475 30.3044 117.375 30.1644C117.265 30.0344 117.095 29.9644 116.925 29.9744C116.715 30.0144 116.495 30.0344 116.285 30.0444C115.695 30.0644 115.115 29.8244 114.705 29.3944C114.295 28.9444 114.085 28.3444 114.125 27.7344C114.085 27.0644 114.325 26.4144 114.775 25.9244C115.255 25.4444 115.915 25.1844 116.595 25.2244C117.405 25.2044 118.185 25.5444 118.725 26.1444C119.265 26.7544 119.565 27.5344 119.595 28.3444C119.565 29.9744 118.895 31.5244 117.725 32.6544C116.795 33.5844 115.735 34.3744 114.575 34.9944L114.305 34.5644Z" fill="#02033B"/>
<path fill-rule="evenodd" clip-rule="evenodd" d="M77.2949 58.4344V63.9944C77.2949 65.6744 78.0449 66.1944 78.7749 66.1944C79.2449 66.1644 79.6949 66.0644 80.1249 65.8744L80.2349 66.2244C79.4249 66.7344 78.4949 67.0144 77.5349 67.0444C76.7449 67.0444 74.7949 66.7644 74.7949 64.8544V58.4344H73.2549V57.8144H75.0649L76.7749 55.1544H77.2949V57.8144H80.0349V58.4444H77.2949V58.4344Z" fill="#02033B"/>
<path fill-rule="evenodd" clip-rule="evenodd" d="M71.7848 60.4544C71.8348 59.1044 70.7848 57.9744 69.4348 57.9244H69.4148H69.2948C68.3948 57.8144 67.5648 58.4544 67.4548 59.3644C67.4548 59.3644 67.4548 59.3744 67.4548 59.3844C67.4348 59.5244 67.4348 59.6744 67.4548 59.8144C67.5548 60.6744 68.9048 60.9844 69.6348 61.2144C71.7948 61.8944 72.6348 62.7144 72.6348 64.3144C72.6348 65.9144 71.3048 67.0344 68.9348 67.0344C67.7748 67.0944 66.6348 66.7344 65.7048 66.0344L65.4248 63.7244H65.6448C65.9948 65.7844 66.8848 66.5944 69.0248 66.6544C69.8448 66.8044 70.6248 66.2644 70.7848 65.4444C70.8048 65.2744 70.8048 65.1144 70.7848 64.9444C70.7848 63.9444 69.7848 63.5744 68.5148 63.1644C66.7548 62.6044 65.6748 61.9244 65.6748 60.2544C65.6748 58.5844 67.1648 57.4844 69.3548 57.4844C70.2648 57.5144 71.1548 57.7644 71.9548 58.2044V60.4044L71.7848 60.4544Z" fill="#02033B"/>
<path fill-rule="evenodd" clip-rule="evenodd" d="M110.575 33.2244C109.235 33.2244 107.575 33.9644 105.855 36.1344V33.2244L100.055 34.0744V34.5544C100.055 34.5544 101.335 34.4044 101.855 34.3644V48.1644C101.855 48.7344 101.765 49.4644 100.795 49.4644H99.8555V50.1044H108.125V49.4744H107.125C106.495 49.5544 105.925 49.1044 105.845 48.4744C105.825 48.3644 105.825 48.2644 105.845 48.1544V38.5144C106.065 36.3944 107.395 35.1744 108.005 35.1644C109.175 35.1644 109.135 35.9944 110.175 36.4844C111.045 36.9144 112.095 36.5644 112.525 35.6944C112.625 35.4844 112.685 35.2544 112.695 35.0144C112.695 34.0144 112.015 33.2544 110.565 33.2544" fill="#02033B"/>
<path fill-rule="evenodd" clip-rule="evenodd" d="M32.825 33.8444C37.385 33.8444 37.195 39.8444 37.195 39.9044C37.235 40.2844 36.955 40.6344 36.575 40.6744C36.575 40.6744 36.565 40.6744 36.555 40.6744C36.495 40.6744 36.445 40.6744 36.385 40.6744H29.585C29.175 40.6944 28.815 40.3744 28.785 39.9644V39.8144C28.865 37.8144 29.395 33.8144 32.785 33.8144M29.515 41.4444H40.685C40.795 40.4444 40.745 39.4344 40.535 38.4444C40.335 37.3944 39.885 36.3944 39.225 35.5544C38.125 34.2244 36.205 33.2244 32.975 33.2244C27.125 33.2244 24.125 36.9544 24.125 42.0344C24.125 47.1144 26.815 50.6444 33.055 50.6444C37.195 50.6444 39.365 48.7044 40.475 45.9644L40.025 45.7444C38.565 48.6444 36.765 49.7444 33.895 49.7444C29.675 49.7444 28.795 45.7444 28.755 42.3844C28.755 42.3544 28.755 42.3144 28.755 42.2844C28.725 41.8644 29.035 41.4844 29.465 41.4544H29.575" fill="#02033B"/>
<path fill-rule="evenodd" clip-rule="evenodd" d="M59.8745 57.8144C62.4045 57.8144 62.3145 61.0544 62.3145 61.0644C62.3245 61.2844 62.1645 61.4644 61.9545 61.4944H58.1245C57.8945 61.5044 57.6945 61.3244 57.6745 61.0944V61.0244C57.6745 59.9144 58.0045 57.8344 59.9045 57.8244M58.0945 62.0444H64.2645C64.3045 61.4944 64.2645 60.9444 64.1245 60.4044C64.0145 59.8244 63.7745 59.2744 63.4045 58.8044C62.5245 57.8544 61.2445 57.3544 59.9545 57.4744C57.4445 57.2644 55.2445 59.1344 55.0345 61.6444C55.0345 61.6444 55.0345 61.6444 55.0345 61.6544C55.0145 61.8944 55.0145 62.1444 55.0345 62.3844C55.0345 65.3144 56.5145 67.1544 59.9745 67.1544C61.7945 67.3344 63.5045 66.2544 64.1245 64.5344L63.8045 64.4144C63.2745 65.8144 61.9045 66.7144 60.4045 66.6344C58.0745 66.6344 57.6545 64.4344 57.6345 62.5544C57.6145 62.3144 57.7945 62.1044 58.0345 62.0844" fill="#02033B"/>
<path fill-rule="evenodd" clip-rule="evenodd" d="M90.6851 33.8344C95.2351 33.8344 95.0551 39.8844 95.0551 39.9044C95.0851 40.2944 94.7951 40.6344 94.4051 40.6744C94.3451 40.6744 94.2951 40.6744 94.2351 40.6744H87.4351C87.0151 40.6944 86.6651 40.3744 86.6351 39.9544V39.8544C86.7251 37.8544 87.2551 33.8544 90.6351 33.8544M87.3551 41.4844H98.5351C98.6451 40.4844 98.5851 39.4744 98.3751 38.4844C98.2051 37.4444 97.7751 36.4544 97.1251 35.6144C95.9651 34.2244 94.0651 33.2244 90.8351 33.2244C84.9951 33.2244 81.9551 37.0044 81.9551 42.0844C81.9551 47.1644 84.6351 50.6944 90.8751 50.6944C95.0251 50.6944 97.1951 48.7544 98.3051 46.0144L97.8651 45.7944C96.3951 48.6944 94.5951 49.7944 91.7251 49.7944C87.5051 49.7944 86.6251 45.7944 86.5851 42.4344C86.5851 42.4044 86.5851 42.3644 86.5851 42.3344C86.5451 41.9144 86.8551 41.5444 87.2751 41.5044H87.2951H87.4051" fill="#02033B"/>
<path fill-rule="evenodd" clip-rule="evenodd" d="M9.545 37.3444H7.845C7.355 37.4044 6.905 37.0444 6.845 36.5544C6.845 36.5544 6.845 36.5544 6.845 36.5444V27.4344C7.545 27.3244 8.265 27.2844 8.975 27.3044C11.635 27.3044 14.685 28.1544 14.685 32.7244C14.685 36.1244 12.885 37.3444 9.525 37.3444M13.685 37.9244C16.825 37.4344 19.055 35.6744 19.035 32.4044C19.035 29.3044 17.315 26.6544 11.035 26.6544H0.125V27.2244H1.315C1.935 27.1944 2.465 27.6644 2.495 28.2844C2.495 28.3644 2.495 28.4344 2.495 28.5144V48.2244C2.595 48.8844 2.145 49.4944 1.495 49.6044H0.125V50.1444H9.345V49.6044H8.235C7.565 49.6844 6.955 49.2144 6.865 48.5444C6.845 48.4344 6.845 48.3144 6.865 48.2044V39.2044C6.865 39.2044 6.865 39.1744 6.865 39.1544C6.865 38.5744 7.095 38.1544 7.865 38.1544H9.125C11.125 38.1544 14.585 39.4544 15.605 44.9644C16.975 52.4144 23.405 54.0244 29.725 53.7544V53.4144C17.035 52.5244 23.555 38.8144 13.725 37.9144" fill="#02033B"/>
<path fill-rule="evenodd" clip-rule="evenodd" d="M42.1855 56.6444C42.8355 56.7244 43.4355 56.2644 43.5155 55.6144C43.5155 55.6144 43.5155 55.6044 43.5155 55.5944V55.4844C43.5455 54.8144 43.0255 54.2544 42.3555 54.2244C42.3455 54.2244 42.3355 54.2244 42.3255 54.2244H42.1855C41.5155 54.1744 40.9155 54.6744 40.8555 55.3444V55.4444C40.8555 56.1044 41.3855 56.6544 42.0455 56.6544C42.0755 56.6544 42.0955 56.6544 42.1255 56.6544H42.2355" fill="#02033B"/>
<path fill-rule="evenodd" clip-rule="evenodd" d="M43.8546 66.4344C43.5946 66.4244 43.3846 66.2044 43.3946 65.9344C43.3946 65.9344 43.3946 65.9344 43.3946 65.9244V57.8644L39.8647 58.4644L40.2146 58.8544L40.8246 58.7944V65.9044C40.8546 66.1644 40.6646 66.4044 40.4046 66.4344H39.7646V66.8644H44.6847V66.4344H43.8647H43.8546Z" fill="#02033B"/>
<path fill-rule="evenodd" clip-rule="evenodd" d="M53.8152 46.0944C53.8152 48.3744 51.4052 49.2344 50.2152 49.0944C48.1252 48.8744 47.2952 47.2244 47.2952 45.3244C47.1352 43.8544 48.0852 42.4944 49.5252 42.1544C50.9552 41.6044 52.9852 40.9744 53.8052 40.5144V46.0944H53.8152ZM60.1352 48.8944C59.7852 49.2244 59.3352 49.4344 58.8552 49.4744C58.3852 49.5144 57.9652 49.1844 57.9052 48.7144C57.8552 47.8344 57.8352 37.9844 57.8352 37.9844C57.8352 35.9844 56.5652 33.2144 50.9352 33.2144C46.6652 33.2144 43.7852 35.2144 43.6552 37.1444C43.5152 38.0244 44.1252 38.8544 45.0052 38.9944C45.1152 39.0044 45.2152 39.0044 45.3252 38.9944H45.5652C45.6452 38.9844 45.7152 38.9644 45.7952 38.9344L45.9552 38.8844C46.5852 38.5444 47.0152 37.9344 47.1352 37.2244C47.5152 34.9044 48.3552 33.6944 50.8252 33.7744C53.7152 33.8544 53.8252 35.4144 53.8252 38.0544V38.4144C53.8252 38.7244 53.6352 39.8544 51.6952 40.6444C49.9552 41.0344 48.2052 41.3444 46.4352 41.5544C44.3652 41.8744 42.8652 43.7144 42.9852 45.8044C42.9852 48.3444 44.9052 50.4544 48.3852 50.5544C51.1452 50.6344 52.7152 49.1344 53.8252 48.4044C54.1452 49.5344 55.0952 50.3844 56.2552 50.5644C57.7552 50.7744 59.2752 50.3144 60.4052 49.3144L60.1352 48.8944Z" fill="#02033B"/>
<path fill-rule="evenodd" clip-rule="evenodd" d="M74.5354 45.1444C74.5854 45.7544 74.4954 46.3644 74.2654 46.9244C73.5554 48.5744 72.0354 49.0444 70.2654 49.0444C66.9454 49.0444 66.0254 45.4844 66.0254 41.5944C66.0254 37.2744 67.0254 34.2744 70.5754 34.2744C72.1354 34.2044 73.5954 35.0744 74.2654 36.4944C74.5254 37.1844 74.6254 37.9144 74.5654 38.6444L74.5354 45.1444ZM79.9554 49.3944C78.8754 49.3944 78.5354 48.8644 78.5354 47.9644V25.3644L71.8754 26.0844V26.6944L74.5354 26.5344V35.5344C73.6554 34.1544 72.1654 33.2744 70.5354 33.1844C68.0454 33.0144 65.5854 33.8644 63.7354 35.5444C61.9554 37.2644 61.0054 39.6744 61.1254 42.1444C61.1254 47.0344 63.7054 50.4544 68.7054 50.4544C70.8554 50.4544 72.9354 49.6644 74.5354 48.2244V50.0244H80.5354V49.3944H79.9554Z" fill="#02033B"/>
<path fill-rule="evenodd" clip-rule="evenodd" d="M35.1246 64.1044C35.2646 65.2044 34.4946 66.2044 33.4046 66.3444C33.1646 66.3744 32.9246 66.3644 32.6946 66.3144C30.8146 66.3144 30.2946 64.3144 30.2946 62.0944C30.2946 59.6544 30.8546 57.9544 32.8646 57.9544C33.7646 57.8944 34.6146 58.4044 34.9946 59.2244C35.1246 59.6044 35.1746 60.0244 35.1246 60.4244V64.1044ZM38.1946 66.5144C37.5846 66.5144 37.3846 66.2144 37.3846 65.7044V52.9044L33.6146 53.3044V53.6544L35.1246 53.5644V58.6344C34.6246 57.8544 33.7846 57.3544 32.8646 57.3044C31.4546 57.2144 30.0646 57.6944 29.0146 58.6444C27.9946 59.6244 27.4546 60.9944 27.5246 62.4044C27.5246 65.1744 28.9946 67.1044 31.8246 67.1044C33.0446 67.1044 34.2246 66.6444 35.1246 65.8144V66.8144H38.5046V66.4544H38.1946V66.5144Z" fill="#02033B"/>
<path fill-rule="evenodd" clip-rule="evenodd" d="M49.7245 63.2244C48.6145 63.2244 47.9845 62.3244 47.9145 60.7244C47.8445 59.1244 48.7545 58.2744 49.6445 58.2744C50.4545 58.2744 51.3745 58.8244 51.3445 60.7244C51.3445 62.2644 50.8545 63.2144 49.7045 63.2244M49.8245 66.9044C51.6845 66.9044 52.7045 67.3244 52.6445 68.6944C52.6545 69.9644 51.6345 71.0044 50.3645 71.0244C50.2645 71.0244 50.1745 71.0244 50.0745 71.0244C48.3945 71.0244 47.3645 70.1344 47.3245 68.6244C47.3045 68.1344 47.5245 67.6544 47.9245 67.3644C48.4845 66.9844 49.1745 66.8344 49.8445 66.9244M52.8445 57.4644C53.4845 57.4644 53.4645 57.9244 54.0345 58.1944C54.5145 58.4144 55.0845 58.2244 55.3345 57.7644C55.3945 57.6444 55.4245 57.5144 55.4345 57.3744C55.4345 56.8144 55.0545 56.3744 54.2545 56.3744C53.2045 56.4744 52.2545 57.0544 51.6845 57.9444C51.0845 57.7244 50.4545 57.6144 49.8145 57.6044C46.8745 57.6044 45.6645 58.7744 45.6845 60.7044C45.6745 62.0944 46.6645 63.2844 48.0245 63.5344C46.9245 63.6844 46.0245 64.3244 46.0245 65.0844C46.0245 66.1744 47.4645 66.6744 48.2945 66.7344C47.4945 66.8144 45.7345 66.8544 45.6145 68.7344C45.4945 70.6144 47.4845 71.6444 49.7045 71.6644C53.3445 71.6644 54.7645 70.0644 54.7645 67.9644C54.7645 65.8644 53.0145 65.2144 51.0345 65.2144H49.2645C47.9545 65.2144 47.5545 64.7744 47.5545 64.4544C47.5545 63.9244 48.1445 63.7044 48.3945 63.6244C48.6445 63.5444 49.3945 63.6844 49.6145 63.6844C51.4045 63.6844 53.6145 62.9544 53.6145 60.6844C53.6045 60.2544 53.5045 59.8244 53.3245 59.4344L53.2345 59.2644C53.1645 59.1544 53.0845 59.0544 53.0045 58.9544L52.8945 58.8344L52.5445 58.4944C52.3745 58.3744 52.2045 58.2544 52.0245 58.1444C52.1845 57.8044 52.4845 57.5544 52.8445 57.4544" fill="#02033B"/>
</g>
<defs>
<clipPath id="clip0_1_2032">
<rect width="130" height="46.52" fill="white" transform="translate(0.125 25.2244)"/>
</clipPath>
</defs>
</svg>
