<svg width="131" height="96" viewBox="0 0 131 96" fill="none" xmlns="http://www.w3.org/2000/svg">
<g clip-path="url(#clip0_1_2058)">
<path d="M45.8146 42.4293V39.4293H33.2246V42.4293H37.6046V54.4293H33.2246V57.4293H45.8146V54.4293H41.0246V42.4293H45.8146Z" fill="#02033B"/>
<path d="M66.7148 42.5493H61.7148V47.4893C61.7148 47.4893 64.4248 47.4093 66.6548 47.4093C68.8848 47.4093 69.4448 46.9293 69.4448 44.6993C69.4448 42.1493 66.7348 42.5393 66.7348 42.5393" fill="#02033B"/>
<path d="M52.2246 61.7494H78.2246V35.2194H52.2246V61.7494ZM73.0146 53.0594V57.2194H69.4246V53.3194C69.4246 53.3194 69.4246 50.3194 67.3546 50.3194C65.2846 50.3194 61.6946 50.3994 61.6946 50.3994V57.3294H58.1946V39.4394H68.5546C70.8846 39.3094 72.8846 41.0894 73.0146 43.4294C73.0146 43.4294 73.0146 43.4294 73.0146 43.4394C73.0346 43.6494 73.0346 43.8594 73.0146 44.0694C73.0146 48.9294 70.3146 49.1694 70.3146 49.1694C70.3146 49.1694 73.0146 49.3294 73.0146 53.0694" fill="#02033B"/>
<path d="M83.0449 39.4393V42.4393H85.5149V54.4393H83.0449V57.3893H98.2649V51.5493H95.2649V54.4193H88.7849V49.5593H93.5649V46.6093H88.7849V42.3893H94.9949V45.2193H98.2649V39.4393H83.0449Z" fill="#02033B"/>
<path d="M118.975 42.4694H113.555V54.4694H119.215C121.925 54.4694 122.005 50.9594 122.005 50.9594V46.2894C122.005 42.2294 119.005 42.4694 119.005 42.4694" fill="#02033B"/>
<path d="M104.125 61.7494H130.125V35.2194H104.125V61.7494ZM119.425 57.5194C112.895 57.5194 109.945 57.5994 109.945 57.5994V39.5194H117.665C117.665 39.5194 125.665 38.6394 125.665 45.8094V50.8094C125.665 50.8094 125.985 57.4994 119.455 57.4994" fill="#02033B"/>
<path d="M0.125 61.7494H26.175V35.2194H0.125V61.7494ZM20.835 57.3594H16.375L13.505 44.3594L10.395 57.4394H6.015L2.355 39.5194H5.945L8.405 53.1394L11.595 39.5194L15.495 39.5994L18.685 53.3794L21.125 39.5194H24.545L20.835 57.3594Z" fill="#02033B"/>
</g>
<defs>
<clipPath id="clip0_1_2058">
<rect width="130" height="26.53" fill="white" transform="translate(0.125 35.2194)"/>
</clipPath>
</defs>
</svg>
