<svg width="131" height="96" viewBox="0 0 131 96" fill="none" xmlns="http://www.w3.org/2000/svg">
<g clip-path="url(#clip0_1_2051)">
<path fill-rule="evenodd" clip-rule="evenodd" d="M113.795 53.3543C111.495 55.3143 108.555 56.3843 105.535 56.3543C99.2546 56.3543 95.1846 51.9043 95.1846 45.0143C95.1846 41.0743 96.0046 38.4643 97.9246 36.3243C99.6446 34.3443 102.185 33.2543 104.805 33.3743C107.135 33.3043 109.405 34.1543 111.125 35.7243C113.125 37.7743 114.035 40.7243 114.035 45.3043V46.6343H101.395V46.8043C101.395 50.1843 103.055 52.1143 106.015 52.1143C108.065 52.0743 110.045 51.3043 111.575 49.9343L113.795 53.3543ZM108.125 42.4443V42.2043C108.245 41.0643 108.005 39.9143 107.445 38.9143C106.905 38.0543 105.935 37.5643 104.925 37.6343C102.745 37.6343 101.505 39.3443 101.505 42.3843V42.4643L108.125 42.4443Z" fill="#02033B"/>
<path fill-rule="evenodd" clip-rule="evenodd" d="M128.545 37.8244H124.865V48.8244C124.865 51.6044 125.375 52.3344 127.345 52.3344C128.045 52.2944 128.735 52.1444 129.395 51.9144L130.125 55.3344C128.655 55.9844 127.065 56.3244 125.455 56.3344C122.555 56.3344 120.235 55.0544 119.555 53.1344C119.195 52.0444 119.065 50.8844 119.175 49.7444V37.8144H116.995V33.8844H119.175C119.135 32.1544 119.205 30.4244 119.385 28.7044L125.205 27.2544C124.985 29.4544 124.865 31.6744 124.865 33.8844H130.005L128.545 37.8244Z" fill="#02033B"/>
<path fill-rule="evenodd" clip-rule="evenodd" d="M86.495 26.0543L86.625 38.2043C86.625 40.2043 86.875 44.0643 87.095 46.3843C86.235 43.4943 85.145 40.6643 83.845 37.9443L78.125 26.0443H71.515V39.5543L56.435 7.20435L0.125 33.4643L26.375 89.7743L82.685 63.5143L77.235 51.8343L77.125 43.0843C77.125 40.6043 77.035 37.0843 76.825 34.6543C77.385 36.4943 79.185 40.6543 80.825 44.4143L85.925 55.7943H92.165V26.0543H86.495ZM54.205 55.4843H49.405V49.0843H52.745C57.255 49.0843 61.105 46.6143 61.105 40.9543C61.105 35.7543 57.675 32.8243 52.825 32.8243H48.595V47.3343L43.125 55.4843H11.725L27.125 32.8343H13.045L17.325 26.4343H40.555L25.255 49.0843H41.045V26.4343H54.205C62.225 26.1443 68.965 32.4043 69.255 40.4243C69.545 48.4443 63.285 55.1843 55.265 55.4743C55.125 55.4743 54.975 55.4743 54.835 55.4743H54.205" fill="#02033B"/>
</g>
<defs>
<clipPath id="clip0_1_2051">
<rect width="130" height="82.56" fill="white" transform="translate(0.125 7.20435)"/>
</clipPath>
</defs>
</svg>
